<svg width="21" height="21" viewBox="0 0 21 21" fill="none" xmlns="http://www.w3.org/2000/svg">
<path d="M10.5 0C8.4233 0 6.39323 0.615814 4.66652 1.76957C2.9398 2.92332 1.59399 4.5632 0.79927 6.48182C0.00454944 8.40045 -0.203386 10.5116 0.201759 12.5484C0.606904 14.5852 1.60693 16.4562 3.07538 17.9246C4.54383 19.3931 6.41476 20.3931 8.45156 20.7982C10.4884 21.2034 12.5996 20.9955 14.5182 20.2007C16.4368 19.406 18.0767 18.0602 19.2304 16.3335C20.3842 14.6068 21 12.5767 21 10.5C21 7.71523 19.8938 5.04451 17.9246 3.07538C15.9555 1.10625 13.2848 0 10.5 0ZM15.308 15.1612C15.2132 15.3176 15.0605 15.4301 14.8832 15.4743C14.7058 15.5184 14.5181 15.4907 14.3612 15.397C10.2229 12.909 5.32462 14.3474 5.27571 14.3624C5.1006 14.4158 4.91146 14.3974 4.7499 14.3114C4.58833 14.2253 4.46757 14.0785 4.41419 13.9034C4.36081 13.7283 4.37918 13.5392 4.46525 13.3776C4.55133 13.2161 4.69806 13.0953 4.87317 13.0419C5.09764 12.9742 10.3997 11.4029 15.0722 14.2132C15.2291 14.3077 15.3421 14.4606 15.3864 14.6384C15.4306 14.8162 15.4024 15.0042 15.308 15.1612ZM16.6122 12.2544C16.504 12.4416 16.3262 12.5783 16.1175 12.6347C15.9088 12.6911 15.6863 12.6626 15.4986 12.5554C10.3044 9.56826 5.07131 11.3063 5.01613 11.3252C4.91477 11.3597 4.8076 11.3739 4.70075 11.3669C4.5939 11.36 4.48946 11.3321 4.39339 11.2849C4.19937 11.1894 4.05123 11.0207 3.98155 10.816C3.91188 10.6113 3.92637 10.3873 4.02185 10.1933C4.11733 9.99926 4.28598 9.85112 4.49069 9.78144C4.73272 9.69867 10.4824 7.78878 16.3112 11.1408C16.4986 11.2487 16.6356 11.4266 16.692 11.6353C16.7484 11.8441 16.7197 12.0668 16.6122 12.2544ZM17.194 9.45038C17.0319 9.45008 16.8723 9.41049 16.7288 9.33501C10.7408 6.1899 4.59101 8.07345 4.52956 8.09226C4.40391 8.13195 4.27167 8.1465 4.1404 8.13508C4.00912 8.12366 3.88138 8.0865 3.76447 8.02572C3.64755 7.96493 3.54376 7.88171 3.45901 7.78081C3.37425 7.67991 3.31021 7.56331 3.27052 7.43766C3.23083 7.312 3.21628 7.17977 3.2277 7.04849C3.23911 6.91721 3.27628 6.78947 3.33706 6.67256C3.39785 6.55565 3.48107 6.45185 3.58196 6.3671C3.68286 6.28235 3.79947 6.2183 3.92512 6.17861C4.20853 6.08957 10.9477 4.0292 17.6618 7.55804C17.8609 7.66213 18.0194 7.83007 18.1117 8.03494C18.204 8.23981 18.2249 8.46974 18.171 8.68789C18.1171 8.90604 17.9915 9.09977 17.8143 9.23803C17.6372 9.37628 17.4187 9.45106 17.194 9.45038Z" fill="white"/>
</svg>
